<?xml version="1.0" encoding="UTF-8" standalone="no"?>
<!-- Created with Inkscape (http://www.inkscape.org/) -->

<svg
   width="299.31363mm"
   height="55.033329mm"
   viewBox="0 0 299.31363 55.033329"
   version="1.1"
   id="svg1"
   xmlns="http://www.w3.org/2000/svg"
   xmlns:svg="http://www.w3.org/2000/svg">
  <defs
     id="defs1" />
  <g
     id="layer1"
     transform="translate(-12.085947,-3.2010557)">
    <path
       style="fill:#000000;stroke-width:0.264583"
       d="m 70.91223,30.717726 c 0,-18.10926 0.120608,-27.5166702 0.352777,-27.5166702 0.232169,0 0.352777,9.4074102 0.352777,27.5166702 0,18.10926 -0.120608,27.51666 -0.352777,27.51666 -0.232169,0 -0.352777,-9.4074 -0.352777,-27.51666 z m -38.216535,21.51944 c -0.385104,-2.01233 -0.938636,-8.33709 -0.983538,-11.23807 -0.02297,-1.48316 -0.142018,-3.14271 -0.264584,-3.6879 l -0.222842,-0.99125 -3.175,2.88235 c -3.819552,3.46749 -9.470501,8.09169 -9.658557,7.90363 -0.166819,-0.16682 5.941851,-7.48086 8.798515,-10.53464 1.15212,-1.23162 2.094762,-2.33814 2.094762,-2.45893 0,-0.1208 -1.389062,-0.22498 -3.086804,-0.23151 -4.141904,-0.0159 -14.429016,-0.93434 -14.104181,-1.25918 0.260463,-0.26046 11.412564,-1.19839 14.249035,-1.19839 1.618073,0 2.94195,-0.0896 2.94195,-0.19917 0,-0.10954 -1.476015,-1.8161 -3.280034,-3.79236 -3.171746,-3.47456 -7.656076,-8.91615 -7.656076,-9.29039 0,-0.27015 2.517828,1.75579 6.642042,5.34442 2.006867,1.74625 4.25664,3.70024 4.9995,4.3422 l 1.35065,1.1672 0.189461,-2.22553 c 0.104203,-1.22404 0.369009,-4.74729 0.588457,-7.82944 0.219445,-3.08214 0.519295,-5.92911 0.666329,-6.32658 0.308181,-0.83309 0.96116,5.21172 1.316524,12.18747 l 0.228751,4.49031 2.357649,-2.22409 c 2.857794,-2.69589 9.443461,-8.25568 10.392347,-8.77348 1.030195,-0.56216 -0.922666,1.82908 -9.453838,11.57605 l -1.35963,1.55339 h 2.83972 c 3.081872,0 11.007452,0.61436 13.282686,1.02963 l 1.413518,0.25798 -1.76389,0.2439 c -3.265125,0.45147 -9.855147,0.93188 -12.824904,0.93492 l -2.94713,0.003 1.35963,1.55339 c 8.531172,9.74697 10.484033,12.13822 9.453838,11.57605 -0.956834,-0.52214 -7.544266,-6.08675 -10.445705,-8.82382 l -2.411005,-2.2744 v 2.08888 c 0,2.37696 -0.623872,10.61195 -1.024165,13.51881 -0.259885,1.88722 -0.273651,1.90652 -0.503481,0.70555 z m 76.051975,-6.95546 0.97013,-0.14696 v -10.36008 -10.36008 l -0.97013,-0.14696 c -0.53358,-0.0808 0.73642,-0.17075 2.82222,-0.19982 l 3.79236,-0.0529 v 0.94794 0.94795 l 1.06209,-1.01755 c 0.89565,-0.85808 1.36139,-1.02046 2.97181,-1.03614 3.68047,-0.0358 5.31471,2.23647 5.31471,7.38974 0,3.62103 -0.58849,5.06198 -2.62888,6.437 -1.49352,1.00648 -5.0588,1.13038 -6.07459,0.21111 -0.62132,-0.56229 -0.64514,-0.43921 -0.64514,3.33378 v 3.91763 l 2.02847,0.12729 c 1.11566,0.07 -0.5909,0.13352 -3.79236,0.14113 -3.20146,0.008 -5.38427,-0.0523 -4.85069,-0.13312 z m 9.64259,-8.38574 c 0.46336,-0.70716 0.57352,-1.83901 0.56801,-5.83588 -0.005,-3.35055 -0.14519,-5.12529 -0.43351,-5.47268 -0.70514,-0.84965 -1.71551,-0.59 -2.46082,0.6324 -0.59844,0.98151 -0.69924,1.78263 -0.70037,5.56595 -10e-4,3.43057 0.12155,4.59485 0.54785,5.20347 0.72403,1.0337 1.76612,0.99449 2.47884,-0.0933 z m 178.65254,7.86677 c -1.47704,-0.75908 -1.5875,-0.91309 -1.5875,-2.21343 0,-1.14557 0.16902,-1.49245 0.93731,-1.92367 0.75385,-0.42313 1.11631,-0.44452 1.85209,-0.10929 0.75977,0.34619 0.91477,0.65291 0.91477,1.81028 0,1.65201 0.62926,2.38974 2.30677,2.70444 3.2031,0.60091 6.15989,-0.83356 6.15989,-2.98841 0,-1.71745 -1.01801,-2.15271 -5.03489,-2.15271 -3.84354,0 -5.35246,-0.49695 -5.90261,-1.94397 -0.47167,-1.24056 0.19457,-2.79549 1.61099,-3.75999 0.66429,-0.45234 1.20791,-0.9018 1.20799,-0.99882 10e-5,-0.097 -0.48165,-0.4506 -1.07059,-0.78576 -1.16607,-0.6636 -2.09976,-2.48214 -2.09976,-4.08963 0,-1.37841 1.33517,-3.28105 2.82924,-4.0317 1.38031,-0.69349 5.25516,-0.84731 6.36617,-0.25272 0.62598,0.33502 0.68236,0.2385 0.68236,-1.1682 0,-2.05302 0.94139,-3.07754 2.82784,-3.07754 1.78319,0 2.80585,1.26179 2.16413,2.67018 -0.47969,1.05283 -1.16223,1.36264 -2.34693,1.06531 -0.93385,-0.23439 -1.2392,-1.42874 -0.44019,-1.72172 0.35055,-0.12853 0.34854,-0.25955 -0.01,-0.63883 -0.70614,-0.74761 -1.64748,0.0682 -1.77342,1.537 -0.0859,1.00181 0.12623,1.51912 1.05833,2.58073 1.03098,1.17421 1.16578,1.56305 1.16578,3.36243 0,1.77136 -0.13438,2.17493 -1.03827,3.11841 -1.23712,1.29125 -2.79541,1.78019 -5.68214,1.78285 -1.90312,0.002 -2.98098,0.3917 -2.98098,1.07843 0,0.12639 1.81245,0.31906 4.02767,0.42816 5.96733,0.29389 7.75594,1.40229 7.74388,4.7988 -0.008,2.21396 -0.89212,3.75722 -2.69478,4.70313 -1.23174,0.64634 -2.19978,0.80465 -5.54898,0.9075 -3.68583,0.11319 -4.20216,0.05 -5.64446,-0.69126 z m 6.84144,-12.48637 c 0.45058,-1.17424 0.22749,-7.05024 -0.29438,-7.75302 -0.68815,-0.92671 -1.6469,-0.3321 -2.07118,1.28454 -0.34121,1.3 -0.16524,5.94259 0.25074,6.61566 0.37336,0.60412 1.86637,0.50022 2.11482,-0.14718 z m -212.574889,2.81633 c -0.0618,-1.86238 -0.008,-3.44992 0.11862,-3.52786 0.12706,-0.0779 0.63178,0.54215 1.1216,1.37796 1.18465,2.02146 3.68227,4.28003 5.33688,4.8261 2.701469,0.89157 5.773989,-1.03339 5.333409,-3.34144 -0.30728,-1.60974 -1.90046,-2.79759 -5.164069,-3.85026 -1.622,-0.52318 -3.47653,-1.27721 -4.12118,-1.67562 -3.28422,-2.02976 -3.416,-7.992 -0.232,-10.49653 1.42019,-1.11712 3.53574,-1.56311 5.96101,-1.25665 1.164159,0.1471 2.870729,0.28264 3.792379,0.30119 l 1.67569,0.0337 v 2.91304 c 0,1.60217 -0.12265,2.91303 -0.27255,2.91303 -0.14991,0 -0.56051,-0.5347 -0.91246,-1.18823 -0.82649,-1.5347 -2.97167,-3.73897 -4.030489,-4.14153 -3.22671,-1.22679 -6.42196,0.96975 -5.38358,3.70089 0.41195,1.08351 1.56295,1.70405 5.37916,2.90006 4.403389,1.38004 5.967569,2.83528 6.477909,6.02674 0.45678,2.85658 -1.4057,6.32131 -3.97518,7.3949 -1.37949,0.57638 -5.394969,0.62086 -7.882819,0.0873 -1.32374,-0.28389 -1.9207,-0.28389 -2.20459,0 -0.76439,0.76439 -0.90681,0.34502 -1.01774,-2.99683 z m 36.576509,2.97877 c -1.15421,-0.6313 -1.5875,-1.41143 -1.5875,-2.85825 0,-2.70438 1.01695,-3.4808 4.93889,-3.77073 l 2.64583,-0.1956 -0.023,-2.46944 c -0.0377,-4.05377 -0.67061,-5.26573 -2.29563,-4.39605 -0.80959,0.43329 -0.89365,1.3376 -0.15083,1.62264 0.55837,0.21427 0.7253,2.09519 0.252,2.83954 -0.49251,0.77456 -2.11863,1.17913 -3.15524,0.78501 -1.21064,-0.46028 -1.4943,-0.90747 -1.50108,-2.36648 -0.0102,-2.19567 2.39178,-3.596 6.16821,-3.596 2.42658,0 4.12843,0.53321 5.14147,1.6109 0.80321,0.85447 0.86658,1.22166 1.03214,5.98061 0.18815,5.40836 0.58026,6.69858 1.61125,5.30171 0.27798,-0.37663 0.50541,-1.05132 0.50541,-1.49931 0,-0.44798 0.14188,-0.81452 0.31528,-0.81452 0.58801,0 -0.32394,2.98907 -1.11415,3.65177 -1.15058,0.96494 -5.02831,0.69215 -5.92638,-0.41692 l -0.63376,-0.78265 -0.89056,0.89057 c -0.73198,0.73197 -1.22326,0.88866 -2.7587,0.87984 -1.02746,-0.006 -2.18561,-0.18439 -2.57367,-0.39664 z m 5.43434,-1.13951 c 0.223,-0.26869 0.50352,-1.53869 0.62337,-2.82222 0.20616,-2.20772 0.17776,-2.33368 -0.52623,-2.33368 -1.01846,0 -1.47454,1.01124 -1.47454,3.2694 0,2.36185 0.46001,2.99189 1.3774,1.8865 z m 9.20594,1.20335 c 0,-0.19911 0.3175,-0.36203 0.70555,-0.36203 0.68071,0 0.70556,-0.23518 0.70556,-6.67824 0,-6.6451 -0.004,-6.679 -0.79375,-6.83112 -0.43656,-0.0841 0.83344,-0.1745 2.82222,-0.20093 l 3.61597,-0.048 0.0141,1.32292 0.0141,1.32291 0.52398,-0.9657 c 1.09176,-2.0121 3.99727,-2.63745 5.64981,-1.21599 0.75102,0.646 0.94973,1.12728 0.94973,2.30031 0,1.85145 -0.84874,2.87999 -2.37652,2.87999 -1.39639,0 -2.19916,-0.60008 -2.50655,-1.87369 -0.19638,-0.81362 -0.10918,-1.02579 0.48545,-1.18129 0.86554,-0.22634 1.17843,-0.87859 0.74984,-1.56312 -0.26592,-0.42472 -0.45394,-0.41819 -1.29027,0.0448 -1.67514,0.92737 -2.01689,2.14243 -2.1545,7.6601 l -0.12538,5.02708 h 1.09141 c 0.60028,0 1.09142,0.14447 1.09142,0.32105 0,0.17658 -2.06375,0.33949 -4.58611,0.36203 -2.92696,0.0261 -4.58612,-0.09 -4.58612,-0.32105 z m 14.8917,-0.0726 c -0.44376,-0.17611 -0.34658,-0.24637 0.36593,-0.26458 l 0.97014,-0.0248 v -10.75973 -10.75972 h -0.88194 c -0.48507,0 -0.88195,-0.16431 -0.88195,-0.36512 0,-0.23443 1.29428,-0.32914 3.61598,-0.26458 l 3.61596,0.10053 0.0954,7.32943 0.0954,7.32944 3.57213,-2.91971 3.57211,-2.91971 -1.55083,-0.2116 c -1.07136,-0.14618 -0.56922,-0.21164 1.62417,-0.21173 1.74625,-7e-5 2.70608,0.0691 2.13294,0.15378 -1.14941,0.16976 -1.59059,0.43668 -3.49279,2.11319 l -1.2913,1.13808 2.54734,5.10905 c 1.85315,3.71675 2.74315,5.14802 3.26585,5.25206 0.39519,0.0787 -1.26586,0.14303 -3.69121,0.14303 -2.42534,0 -4.05638,-0.0683 -3.6245,-0.15177 0.76373,-0.14761 0.73709,-0.24765 -0.97337,-3.65612 -0.96721,-1.9274 -1.83649,-3.50436 -1.93174,-3.50436 -0.0952,0 -0.17317,1.57646 -0.17317,3.50324 0,3.35251 0.0341,3.50982 0.79375,3.65612 0.43656,0.0841 -0.35719,0.19151 -1.76389,0.23873 -1.40669,0.0472 -3.19855,0.10852 -3.9819,0.13623 -0.78335,0.0277 -1.69616,-0.0575 -2.02847,-0.18939 z m 31.49857,0.1084 c -4.98682,-1.31814 -7.65463,-6.52307 -6.52799,-12.73618 0.48699,-2.68557 1.09664,-3.99835 2.59874,-5.59598 2.01956,-2.14801 3.50395,-2.68941 7.28064,-2.65546 1.84327,0.0166 4.17448,0.092 5.18047,0.16762 l 1.82908,0.1375 0.1112,3.08762 c 0.0612,1.69819 -0.005,3.08725 -0.14744,3.0868 -0.14226,-5.3e-4 -0.65818,-0.78925 -1.1465,-1.75291 -1.1272,-2.22441 -3.00565,-4.11181 -4.39632,-4.41725 -1.58702,-0.34857 -3.51063,0.72749 -4.40686,2.46518 -0.65373,1.2675 -0.7278,2.03943 -0.7278,7.58473 0,5.92666 0.0353,6.23711 0.88195,7.76111 1.16679,2.10022 2.99281,3.05349 4.74277,2.47596 1.44989,-0.47851 3.03889,-2.19657 4.25966,-4.60565 0.48798,-0.96298 0.96393,-1.75087 1.05768,-1.75087 0.0937,0 0.17044,1.47264 0.17044,3.27254 v 3.27253 l -1.4993,0.0393 c -0.82462,0.0216 -3.00743,0.13019 -4.8507,0.24123 -1.84326,0.11104 -3.82763,0.076 -4.40972,-0.0779 z m 16.93334,-0.35899 c -2.69724,-1.24485 -3.76875,-3.11153 -3.78337,-6.591 -0.0203,-4.83951 2.7282,-7.56229 7.62837,-7.55693 4.23005,0.005 6.5411,1.61429 7.25502,5.05315 0.90358,4.35256 -0.69326,8.08126 -3.98014,9.29374 -1.7755,0.65495 -5.4949,0.55102 -7.11988,-0.19896 z m 4.95536,-0.54359 c 0.46858,-0.71514 0.54318,-1.80405 0.44911,-6.55555 -0.10215,-5.15948 -0.17752,-5.74523 -0.7976,-6.19798 -0.84857,-0.61959 -0.95714,-0.61955 -1.80542,8e-4 -0.63181,0.46199 -0.68479,0.96909 -0.68479,6.55482 0,5.58574 0.053,6.09284 0.68479,6.55483 0.97477,0.71277 1.51132,0.62387 2.15391,-0.35685 z m 9.0867,0.52031 c -2.14503,-1.3079 -1.87785,-4.8982 0.43643,-5.86518 0.62029,-0.25917 2.19535,-0.58059 3.50017,-0.71428 l 2.37239,-0.24305 -0.12137,-3.10565 c -0.13284,-3.39976 -0.46288,-4.0578 -1.85941,-3.7073 -0.67003,0.16817 -0.90776,0.45706 -0.90776,1.10306 0,0.54279 0.20098,0.87523 0.52917,0.87523 0.79222,0 0.66863,1.97719 -0.1764,2.82222 -0.75901,0.75901 -2.4497,0.92975 -3.52229,0.35571 -0.93827,-0.50214 -1.21928,-2.2068 -0.57057,-3.46123 0.74131,-1.43353 2.79127,-2.18628 5.95209,-2.1856 5.18634,10e-4 6.25327,1.39293 6.25411,8.15834 0,3.33673 0.12161,4.55519 0.48292,4.85504 0.60502,0.50213 1.06373,0.008 1.6002,-1.72504 l 0.3823,-1.23472 -0.15227,1.58695 c -0.23106,2.40754 -1.43743,3.29814 -4.19719,3.09851 -1.69056,-0.12228 -2.2529,-0.32271 -2.82808,-1.00793 l -0.71792,-0.85531 -0.96173,0.97014 c -0.78523,0.79208 -1.27426,0.9699 -2.66457,0.96882 -1.06497,-7.9e-4 -2.12513,-0.25882 -2.83022,-0.68873 z m 6.24266,-3.93514 c 0,-1.57528 -0.12309,-2.07759 -0.50917,-2.07759 -1.33194,0 -2.12614,3.31064 -1.20642,5.02913 l 0.40108,0.74941 0.65726,-0.81169 c 0.47487,-0.58644 0.65725,-1.38819 0.65725,-2.88926 z m 12.52363,3.95842 c -2.82771,-1.30506 -3.9025,-3.53087 -3.61892,-7.49438 0.20471,-2.86101 1.10934,-4.43345 3.26006,-5.66658 1.18047,-0.67683 1.92826,-0.81255 4.47691,-0.81255 2.55397,0 3.22456,0.12221 4.05694,0.73936 1.3163,0.97594 1.86594,3.0334 1.15077,4.30759 -1.02721,1.83007 -3.85743,1.58251 -4.55289,-0.39823 -0.34563,-0.98441 -0.30578,-1.17989 0.32718,-1.60494 1.31667,-0.88415 0.60471,-3.1042 -0.90059,-2.80833 -0.32832,0.0645 -0.92747,0.56049 -1.33149,1.10213 -0.60893,0.81636 -0.75824,1.62389 -0.87288,4.72132 -0.20831,5.62725 0.57232,7.52304 3.09779,7.52304 1.64283,0 3.07935,-1.05049 3.81974,-2.79325 0.29525,-0.69503 0.60767,-1.06251 0.69421,-0.81663 0.0866,0.24588 -0.14375,1.03963 -0.51183,1.76389 -1.34049,2.63767 -5.83322,3.74298 -9.095,2.23756 z m 11.02428,0.065 0.79375,-0.15288 v -10.73521 c 0,-10.50001 -0.0153,-10.73519 -0.70553,-10.73519 -0.38807,0 -0.70557,-0.15875 -0.70557,-0.35278 0,-0.21167 1.4111,-0.35278 3.52777,-0.35278 h 3.5278 v 5.36654 5.36653 l 0.99075,-1.18676 c 0.85506,-1.02424 1.25368,-1.20783 2.91042,-1.34055 2.42107,-0.19395 3.67017,0.28538 4.56401,1.75142 0.62479,1.02474 0.70453,1.78068 0.7057,6.68814 l 0.003,5.53282 0.97015,0.14696 c 0.53359,0.0808 -1.01423,0.15234 -3.43958,0.1589 -2.42536,0.007 -4.1283,-0.0614 -3.78434,-0.15094 0.57362,-0.1494 0.61743,-0.67909 0.52917,-6.39728 l -0.0962,-6.23439 h -0.84386 c -0.51464,0 -1.13329,0.38764 -1.58565,0.99353 -0.65945,0.88326 -0.75597,1.575 -0.86955,6.23233 l -0.12777,5.23879 0.83148,0.15783 c 0.45731,0.0868 -1.1529,0.15783 -3.57825,0.15783 -2.42536,0 -4.05255,-0.0688 -3.61598,-0.15289 z m 18.52084,-0.004 0.97014,-0.14696 v -6.65592 -6.65591 l -0.97014,-0.14696 c -0.53356,-0.0808 0.73644,-0.17075 2.82223,-0.19983 l 3.79235,-0.0528 v 6.85573 6.85574 l 0.97015,0.14696 c 0.53358,0.0808 -1.17298,0.14696 -3.79235,0.14696 -2.61938,0 -4.32594,-0.0661 -3.79238,-0.14696 z m 9.70139,0.004 c 0.78968,-0.1521 0.79375,-0.18693 0.79375,-6.80659 0,-6.61965 -0.004,-6.65448 -0.79375,-6.80658 -0.75165,-0.14478 -0.74697,-0.1563 0.0882,-0.21726 0.48509,-0.0354 2.11233,-0.0967 3.61614,-0.13624 l 2.73418,-0.0719 -1.6e-4,1.17165 -1.6e-4,1.17164 1.18819,-1.25984 c 1.10196,-1.16843 1.33945,-1.25984 3.2729,-1.25984 2.21107,0 3.30814,0.5015 4.09106,1.87018 0.2811,0.4914 0.50835,2.83866 0.62008,6.40497 l 0.1764,5.62931 0.88193,0.24455 c 0.48507,0.1345 -1.10243,0.24196 -3.52776,0.23879 -2.42536,-0.003 -4.1283,-0.0791 -3.78434,-0.16863 0.57359,-0.1494 0.61741,-0.67909 0.52917,-6.39728 l -0.0962,-6.23439 h -0.84386 c -0.51483,0 -1.13385,0.38806 -1.5875,0.99518 -0.66279,0.88698 -0.75669,1.56463 -0.8636,6.2331 l -0.11999,5.23793 0.82552,0.15705 c 0.45406,0.0864 -1.15884,0.15705 -3.58417,0.15705 -2.42536,0 -4.05255,-0.0688 -3.61599,-0.15289 z m -6.79098,-16.27028 c -1.25632,-0.23886 -1.94027,-1.15023 -1.94027,-2.58542 0,-1.80787 0.9651,-2.76755 2.78316,-2.76755 1.86788,0 2.91674,0.90372 2.96352,2.55345 0.0584,2.06208 -1.53213,3.2319 -3.80641,2.79952 z"
       id="path1" />
  </g>
</svg>
